<svg xmlns="http://www.w3.org/2000/svg" data-name="Layer 2" viewBox="0 0 1080 1080"><path fill="#e5b1e4" d="M126.08908,269.3157C37.75715,342.768,717.47686-273.91108,990.07115,429.31062c13.06351,33.70051,12.07373,73.43287-5.34646,105.46462-95.34335,175.31468,89.51667,316.61327,16.93646,423.719-55.79129,82.33052-623.72741,152.8868-812.02248,54.49014s-58.84221-268.0281-84.73278-416.36969S27.51777,396.68013,126.08908,269.3157Z"/><ellipse cx="534.322" cy="704.313" opacity=".1" rx="217.324" ry="31.777"/><rect width="11.564" height="346.387" x="403.274" y="326.15" fill="#b3b3b3"/><rect width="11.853" height="26.627" x="436.174" y="672.537" fill="#b3b3b3"/><polygon fill="#b3b3b3" points="801.048 530.788 801.048 553.318 340.601 553.318 340.601 410.635 363.13 410.635 363.13 530.788 801.048 530.788"/><rect width="20.417" height="22.53" x="560.616" y="553.318" fill="#b3b3b3"/><rect width="10.209" height="232.483" x="565.72" y="464.71" fill="#b3b3b3" transform="rotate(90 570.824 580.952)"/><rect width="10.209" height="116.241" x="454.583" y="575.847" fill="#b3b3b3" transform="rotate(180 459.687 633.968)"/><circle cx="459.687" cy="699.164" r="6.29" stroke="#000" stroke-miterlimit="10" stroke-width="1.408"/><circle cx="459.687" cy="699.164" r="15.229" stroke="#000" stroke-miterlimit="10" stroke-width="1.408"/><path fill="#5a87af" d="M481.56341,454.9899s42.96979-34.01515,60.33631-26.749,50.22211,8.20486,60.07878,6.79677l9.85668-1.4081,4.22429,65.24181H481.56341l-14.87072-14.081Z"/><path fill="#367aad" d="M481.56339,467.82724s42.96981-34.0151,60.3363-26.749,50.22214,8.20485,60.07882,6.79675l9.85667-1.4081,3.39313,52.4045h.83116l-4.22429-65.24186-9.85667,1.40809c-9.85668,1.4081-42.71232.46943-60.07882-6.79674s-60.3363,26.749-60.3363,26.749l-14.8707,29.80053,4.35037,4.11935Z"/><rect width="10.209" height="116.241" x="676.857" y="575.847" fill="#b3b3b3" transform="rotate(180 681.961 633.968)"/><path fill="#e2b88f" d="M459.84059,454.9899a27.51549,27.51549,0,0,0,21.72282,0s6.74292,11.78491-3.43434,25.44556a43.7073,43.7073,0,0,0-28.49718-5.44084S462.0554,472.67691,459.84059,454.9899Z"/><circle cx="681.961" cy="699.164" r="6.29" stroke="#000" stroke-miterlimit="10" stroke-width="1.408"/><circle cx="681.961" cy="699.164" r="15.229" stroke="#000" stroke-miterlimit="10" stroke-width="1.408"/><ellipse cx="425.286" cy="452.925" fill="#e2b88f" rx="23.938" ry="40.377" transform="rotate(-79.372 425.286 452.925)"/><path fill="#dd9c66" d="M439.92567,432.16344c12.008,6.30627,19.24169,15.82613,17.53477,24.92238-2.43821,12.99361-22.18182,20.19309-44.09867,16.08052a66.79794,66.79794,0,0,1-10.22417-2.76548,63.49666,63.49666,0,0,0,17.73407,6.051c21.91677,4.11256,41.66046-3.08691,44.09859-16.08052C467.00884,449.50724,456.29977,438.03664,439.92567,432.16344Z"/><path stroke="#000" stroke-miterlimit="10" stroke-width=".992" d="M405.31436,428.24088s1.4558,27.44885,19.97189,31.20377,12.88369,8.268,12.88369,8.268l5.63239-4.5131-18.51608.93873s-7.75253,7.22141,7.25131,9.38731a94.528,94.528,0,0,0,27.14985,0s15.093,1.59524,18.848,4.08318,15.95842,4.3654,18.77462,9.99778l6.57111,13.14224H448.496L400.6207,481.97653s-24.901-15.96076-15.26672-42.24523S405.31436,428.24088,405.31436,428.24088Z"/><path fill="#fbb03b" d="M560.61567,498.87136s3.46157-45.66882,0-71.64842c0,0,177.47883-4.29447,203.52862,0,0,0,11.96882,43.48649,0,73.52588Z"/><path fill="#f7991c" d="M764.14862 438.68207a176.14735 176.14735 0 015.16563 34.66406c1.1745-24.13952-5.16563-47.20827-5.16563-47.20827-26.04979-4.29451-203.52856 0-203.52856 0 .50827 3.81494.864 8.0608 1.10661 12.51791C576.68125 438.30383 739.30084 434.58575 764.14862 438.68207zM562.11186 462.77277c-.25516 18.68358-1.4918 35.01351-1.4918 35.01351l.7551.007C561.83719 488.58725 562.30317 475.5272 562.11186 462.77277z"/><rect width="418.674" height="37.549" x="367.765" y="493.239" fill="#fff" rx="12"/><path fill="#e6e6e6" d="M769.542,493.47443H384.66229a16.94688,16.94688,0,0,0-16.89716,16.89716v3.75495c0,.43556.03292.86321.06575,1.2907a16.94215,16.94215,0,0,1,16.83141-15.60638H769.542a16.942,16.942,0,0,1,16.83141,15.60638c.03283-.42749.06575-.85514.06575-1.2907v-3.75495A16.94682,16.94682,0,0,0,769.542,493.47443Z"/><path fill="#fff" d="M397.34711,469.00271c-11.0878-2.59607-21.95247-1.15313-30.34323,3.2439,4.6383,9.31808,14.51029,17.06134,27.097,20.00835,11.40938,2.67136,22.56763.81855,30.73289-4.23546C419.54679,479.1334,409.68048,471.8904,397.34711,469.00271Z"/><path fill="#e6e6e6" d="M393.82688,475.67349A44.56831,44.56831,0,0,1,418.52057,490.693a34.55762,34.55762,0,0,0,6.31323-3.04317c-5.287-8.88612-15.15328-16.12917-27.48668-19.01687-11.08781-2.596-21.95243-1.1531-30.34326,3.24394a31.95376,31.95376,0,0,0,2.72819,4.46785A45.84176,45.84176,0,0,1,393.82688,475.67349Z"/><path fill="#91a9aa" d="M437.80441,431.44161s2.243-4.68352,9.75284-7.34954,17.01726,4.84383,17.66126,10.00685,3.19617,13.78321-.42675,20.03384C464.79176,454.13276,446.82618,444.27337,437.80441,431.44161Z" opacity=".7"/><rect width="81.867" height="30.035" x="367.765" y="224.767" fill="#fff" opacity=".6"/><polygon fill="#134184" points="367.876 275.923 392.954 299.213 392.954 326.15 424.946 326.15 424.946 299.213 424.664 299.213 449.742 275.923 449.742 254.801 367.876 254.801 367.876 275.923" opacity=".6"/><ellipse cx="412.355" cy="267.944" fill="#1b4468" opacity=".6" rx="5.427" ry="5.398"/><ellipse cx="414.936" cy="281.555" fill="#1b4468" opacity=".6" rx="2.582" ry="2.816"/><ellipse cx="431.319" cy="271.698" fill="#1b4468" opacity=".6" rx="6.485" ry="7.04"/><ellipse cx="410.582" cy="295.167" fill="#1b4468" opacity=".6" rx="1.773" ry="2.347"/><rect width="76.037" height="11.398" x="371.038" y="672.537" fill="#b3b3b3"/><rect width="11.853" height="26.627" x="371.285" y="672.537" fill="#b3b3b3"/><ellipse cx="251.539" cy="897.26" opacity=".13" rx="140.209" ry="22.679"/><ellipse cx="828.461" cy="887.231" opacity=".13" rx="140.209" ry="22.679"/><path fill="#42210b" d="M895.04552 881.9364c0-13.58757-10.59659-24.60241-23.66815-24.60241s-23.66814 11.01484-23.66814 24.60241a25.57429 25.57429 0 00.56392 5.29419H894.4816A25.57429 25.57429 0 00895.04552 881.9364zM821.71582 881.9364c0-13.58757-10.59659-24.60241-23.66814-24.60241s-23.66815 11.01484-23.66815 24.60241a25.57429 25.57429 0 00.56392 5.29419H821.1519A25.57429 25.57429 0 00821.71582 881.9364z"/><path fill="#5a87af" d="M820.78155,553.51456s11.02429,145.62606,5.82357,197.32227,0,14.94831,0,14.94831l-9.56064,99.0325s-41.73068,6.22846-42.66495,3.73708-8.40842-122.07781-11.52265-145.746-13.70261-155.47168-9.96554-169.2942Z"/><path fill="#367aad" d="M820.78155,553.51517h-8.097s11.02427,145.626,5.8236,197.32227,0,14.9483,0,14.9483l-9.56067,99.03251s-21.47443,3.20486-33.95834,4.09685c5.24926,1.39616,42.05533-4.09685,42.05533-4.09685l9.56067-99.03251s-5.20075,36.74791,0-14.9483S820.78155,553.51517,820.78155,553.51517Z"/><path fill="#5a87af" d="M802.05661,322.47846l49.03676,0,4.80834,226.55631s-48.43251,7.47415-58.59317,3.11423Z"/><path fill="#367aad" d="M843.53919,322.47855h-9.96553L838.382,549.03482s-23.70776,3.65808-41.42937,4.36251c16.86459.96612,51.3949-4.36244,51.3949-4.36244Z"/><path fill="#fff" d="M743.54865,503.567s-6.22846,7.47416-11.83407,133.289l85.3299-4.98277s-13.70261-106.11048-11.83408-130.911Z"/><path fill="#e5a16e" d="M873.365,252.56006c0-35.77479-22.49445-64.776-50.24288-64.776s-50.24288,29.00119-50.24288,64.776c0,22.15946,8.63568,41.71129,21.79961,53.39057v-18.096h56.88655v18.096C864.72929,294.27135,873.365,274.71952,873.365,252.56006Z"/><ellipse cx="874.603" cy="253.876" fill="#e5a16e" rx="9.449" ry="10.438"/><ellipse cx="874.253" cy="254.34" fill="#e28140" rx="3.5" ry="5.074"/><ellipse cx="770.698" cy="253.876" fill="#e5a16e" rx="9.449" ry="10.438"/><ellipse cx="770.348" cy="254.34" fill="#e28140" rx="3.5" ry="5.074"/><path fill="#e28140" d="M851.519,199.55976c8.1195,11.50608,13.06934,26.79614,13.06934,43.57717,0,35.77479-22.49453,64.776-50.24288,64.776-10.748,0-20.69936-4.36532-28.869-11.77568C794.66668,309.16058,807.91767,317.336,822.65,317.336c27.74843,0,50.243-29.00119,50.243-64.776C872.893,230.64222,864.44117,211.28108,851.519,199.55976Z"/><path stroke="#000" stroke-miterlimit="10" stroke-width="1.367" d="M776.97472,257.95806s-2.49138-22.00723,11.62646-22.00723c0,0-2.07615-7.88938,0-15.36353l41.10783-3.32184h27.40522s3.32185,1.24569,2.90662,12.04168c0,0-.41523,5.81323,8.71984,8.30462l1.66093,11.62646,2.49138-.83047s9.5503-19.93107-3.73708-45.26014-52.31906-25.7443-52.31906-25.7443-20.76153-.41523-37.786,19.51584c-14.02369,16.418-14.53307,46.09061-14.53307,46.09061s7.41509-2.90662,8.06747,14.9483Z"/><ellipse cx="844.732" cy="201.601" stroke="#000" stroke-miterlimit="10" stroke-width="1.367" rx="22.081" ry="20.046"/><ellipse cx="815.836" cy="197.207" stroke="#000" stroke-miterlimit="10" stroke-width="1.453" rx="28.896" ry="27.117"/><ellipse cx="788.822" cy="203.514" stroke="#000" stroke-miterlimit="10" stroke-width="1.367" rx="16.414" ry="15.729"/><ellipse cx="866.665" cy="207.444" stroke="#000" stroke-miterlimit="10" stroke-width="1.367" rx="6.228" ry="10.237"/><path fill="#e5a16e" d="M802.05661,305.95063V328.9625s23.23337,23.66815,42.675-1.66092l-1.73518-21.351Z"/><path fill="#e28140" d="M843.816,305.95172h-6.64366l1.73517,21.35095c-5.66605,7.38192-11.65342,10.59742-17.29462,11.45475,7.378,1.07173,15.97571-1.08086,23.93829-11.45475Z"/><path fill="#ccc" d="M794.20682 287.85464v18.096c8.08818 7.176 17.88264 11.38541 28.44327 11.38541s20.3551-4.20946 28.44328-11.38541v-18.096zM772.58527 257.95806s5.63519 24.91379 21.62155 29.89658v2.49141S775.67 282.45667 772.58527 257.95806zM851.09337 287.85464s16.40163-9.96551 21.79963-39.44689c0 0-.83051 28.65092-21.79963 41.9383z"/><path fill="#5a87af" d="M808.15618,553.51517l78.74515-10.086s11.11312,118.34073,7.376,178.13394.76814,135.15758.76814,135.15758-45.61305,13.70261-54.3329,6.22846-9.85552-191.83656-12.71333-217.37325S808.15618,553.51517,808.15618,553.51517Z"/><path fill="#367aad" d="M894.27738,721.56307c3.73707-59.79321-7.37607-178.13394-7.37607-178.13394L868.50013,545.786c.84052,5.75585,17.24262,118.88291,16.6568,177.25587-.569,56.70947,6.967,126.95405,7.77318,134.29211,1.34339-.38183,2.11541-.61334,2.11541-.61334S890.5403,781.35628,894.27738,721.56307Z"/><path fill="#fff" d="M802.05661,322.47846s-40.86065-.15965-81.96849,24.339c0,0-15.36353,97.99443,14.94831,160.279,0,0,71.97192,13.7075,120.13867-13.69772,0,0-47.05808-28.6558-92.73345-18.69027,0,0,22.00722-20.3463,46.50583-18.68537L802.39028,328.945Z"/><path fill="#fff" d="M844.73157,484.25876s6.90382,128.30627.81959,148.23734c0,0,75.96013-2.49138,83.51994,0,0,0-14.81514-141.386-22.93589-148.23734Z"/><path fill="#fff" d="M845.55116,322.47846s64.29737,9.96023,68.03444,16.52675,26.99,68.85111,8.30462,158.95616c0,0-24.52358,15.51428-124.58168-24.008l-2.96707-16.526c.03482-1.47219,40.56786-6.18634,49.90059-8.46316C851.64748,447.15753,840.63177,375.37241,845.55116,322.47846Z"/><path fill="#ccc" d="M802.39028 328.945s-15.03479 39.87968-22.92418 50.67568c0 0 27.93357 66.39507 29.33032 73.4749C808.79642 453.09554 809.95092 344.291 802.39028 328.945zM845.34641 324.78358s18.82672 32.4146 25.47046 38.64306c-.43132 2.23524-27.16744 89.6977-25.63215 84.74032C847.96069 448.43094 834.35043 366.43139 845.34641 324.78358z"/><path fill="#e5a16e" d="M794.34147 457.42734s-26.08659 4.8242-31.06936 11.46789-1.60087 5.608 4.19975 4.875 29.82419-3.06335 29.83668.18312zM879.53669 446.47277s33.63368-27.40522 34.46414-9.13507l-12.04169 13.70261S896.56115 447.71846 879.53669 446.47277z"/><circle cx="765.364" cy="407.042" r="13.719" fill="gray"/><circle cx="765.364" cy="407.042" r="5.334" fill="#1a1a1a"/><polygon fill="red" points="878.914 409.086 868.325 409.086 868.325 376.844 862.72 376.844 862.72 409.086 862.72 415.507 862.72 415.593 868.325 415.593 868.325 415.507 878.914 415.507 878.914 409.086"/><path d="M844.73157,316.09035s29.61828,1.03816,41.60629,29.17l-7.1645,1.038s-11.344-22.10315-33.6222-23.81992"/><path fill="gray" d="M862.82554,376.844H869.386s-.332-24.91384,15.55059-23.66815,14.63688,22.42245,14.63688,22.42245l6.85131-.31142s.62284-28.96234-21.48819-31.1423S862.82554,376.844,862.82554,376.844Z"/><polygon fill="red" points="900.53 375.293 900.53 408.78 891.81 408.78 891.81 415.288 900.53 415.288 906.135 415.288 906.135 408.78 906.135 375.293 900.53 375.293"/><ellipse cx="881.625" cy="412.352" fill="gray" rx="2.959" ry="8.408"/><ellipse cx="890.036" cy="412.352" fill="gray" rx="2.959" ry="8.408"/><path d="M760.85682,394.09019s-3.06184-60.87158,41.19979-77.99984v6.38811s-34.217,13.543-35.15123,70.84479Z"/><path fill="#e6e6e6" d="M756.62842 437.99648s.32214.50416.791 1.42558a38.86952 38.86952 0 011.7297 3.89165 50.46235 50.46235 0 011.85713 5.69989c.2655 1.06413.55838 2.16019.76381 3.29625.23129 1.13043.4311 2.28549.586 3.452.16119 1.16282.28816 2.33461.35157 3.49606.10789 1.15346.09549 2.30807.09352 3.41759.023 1.10587-.11 2.194-.18635 3.209a25.315 25.315 0 01-.46242 2.85945 15.61129 15.61129 0 01-.64939 2.36844c-.11511.3464-.20551.67151-.32085.96453-.13982.2874-.26816.55145-.3841.79-.46623.94339-.76739 1.44231-.76739 1.44231s-.00539-.61532.04593-1.62182c.01338-.24907.0282-.52476.0444-.82493-.00905-.30321-.01878-.63114-.0292-.98149-.03854-.70078.00593-1.45941-.07793-2.31271-.0866-.85139-.08675-1.749-.21273-2.71674-.11481-.96544-.15724-1.97-.31074-3.02056-.1291-1.04824-.23365-2.12643-.39149-3.22827-.14187-1.09934-.26907-2.21889-.44478-3.33769-.30268-2.24983-.60536-4.49967-.88918-6.60884-.28139-2.11975-.52507-4.11161-.69127-5.83759-.19388-1.71891-.29584-3.17528-.36662-4.199C756.64081 438.59576 756.62842 437.99648 756.62842 437.99648zM901.95917 451.04028s-.39012-.18855-1.1337-.47c-.75483-.26657-1.87485-.60346-3.31571-.96035-.708-.21129-1.53058-.32762-2.40266-.51078-.87169-.18627-1.82269-.34974-2.848-.48241-2.0298-.35-4.362-.4974-6.87579-.76624q-1.90126-.08713-3.95445-.18118c-1.36126-.08858-2.776-.10782-4.23074-.10652-1.45425-.001-2.94415-.0406-4.46964-.01118-1.52761.07132-3.0867.09876-4.67165.14689-3.16973.0038-6.44256.42479-9.76937.56392-3.32628.21441-6.69719.64041-10.07122.95222-3.37448.33491-6.73764.826-10.05556 1.22432-3.31845.39536-6.56778.95381-9.72383 1.40278-1.57795.22915-3.125.48165-4.64884.67956q-2.27226.382-4.4396.74655c-2.88256.50492-5.619.93678-8.14824 1.33092-2.52895.394-4.826.869-6.88058 1.20783-2.05413.34868-3.845.65265-5.31974.903-2.95715.478-4.65834.71773-4.65834.71773s1.62311-.54506 4.48362-1.44033c1.434-.43634 3.17529-.96612 5.1727-1.57384 2.00607-.57616 4.25051-1.31442 6.74889-1.91172 2.49131-.6284 5.19368-1.30432 8.06377-1.971q2.15229-.50511 4.41542-1.0363c1.51507-.31667 3.07265-.58985 4.652-.89535q2.37126-.44865 4.81512-.91092 1.22076-.23084 2.4555-.4644 1.24413-.17735 2.5-.35643c3.35305-.44486 6.74623-.99054 10.1652-1.36544 3.43135-.27417 6.84917-.66056 10.23567-.83612 1.69374-.0866 3.37555-.1456 5.03645-.1973q1.2455-.03888 2.475-.07732 1.23216.013 2.44584.02577c1.61718.02152 3.20683.02281 4.76129.06843 1.55552.069 3.07781.20559 4.55707.30124 2.96118.12993 5.74627.62109 8.30905.94286 2.55456.47861 4.88841.90157 6.91806 1.4953a27.03644 27.03644 0 012.82941.83391c.8606.307 1.66166.53442 2.35537.84789a27.17445 27.17445 0 013.17384 1.48124C901.61315 450.79539 901.95917 451.04028 901.95917 451.04028zM921.89024 497.96137s-.45094.22847-1.32507.60361c-.87321.37415-2.16354.91534-3.85469 1.46862a60.3691 60.3691 0 01-6.19417 1.71807 62.303 62.303 0 01-8.26822 1.29473c-1.52914.19061-3.13347.20414-4.7952.29462-1.6612.02965-3.38414-.02365-5.15255-.10614-1.7608-.17761-3.59125-.23068-5.42732-.56886q-1.38315-.2183-2.79513-.44121-1.392-.3263-2.80972-.65873a58.75436 58.75436 0 01-5.68035-1.65695c-1.87614-.594-3.711-1.27884-5.58509-1.95187-3.72248-1.30028-7.52631-2.56779-11.36283-3.80793-3.82345-1.26288-7.65184-2.51663-11.43446-3.7148-3.77889-1.21422-7.49779-2.40912-11.09672-3.56555-7.20234-2.30678-13.921-4.48606-19.67127-6.39193-11.50912-3.7798-19.129-6.52368-19.129-6.52368s7.95467 1.53194 19.72343 4.46187c2.9443.72443 6.13038 1.52443 9.485 2.42532 3.35685.89382 6.90164 1.82193 10.5417 2.87769 3.64325 1.043 7.41971 2.08941 11.22157 3.27162 3.80771 1.16282 7.669 2.37422 11.52417 3.61079 3.83386 1.285 7.67723 2.61166 11.44472 3.97406 1.86435.67523 3.70446 1.42452 5.52076 2.07223a55.41516 55.41516 0 005.32825 1.74354q1.33572.36027 2.64816.71439 1.333.27143 2.63957.53761c1.73305.42015 3.47477.55913 5.154.82334a76.7435 76.7435 0 009.588.44782q1.12-.02714 2.19235-.05322 1.07033-.07493 2.09032-.14628c1.36559-.059 2.6477-.24254 3.86222-.36427 2.41672-.317 4.52408-.66147 6.24405-1.02976 1.71967-.36776 3.07135-.68565 3.98106-.94514C921.41041 498.12575 921.89024 497.96137 921.89024 497.96137zM886.33784 424.46555s.05664.33347.0999.88621c.04616.55488.077 1.331.06927 2.23836-.016.90537-.07421 1.94016-.19525 3.02413-.10811 1.08565-.28337 2.22163-.46538 3.34384-.10318.55731-.20635 1.11462-.30785 1.66326l-.32443 1.59741c-.22573 1.03661-.43642 2.0041-.617 2.83337-.11116.42767-.17137.80646-.24414 1.162a9.18147 9.18147 0 00-.16278.93321c-.06774.528-.13891.87663-.13891.87663a5.92589 5.92589 0 01-.581-.69089 3.8653 3.8653 0 01-.52986-.89572 6.86284 6.86284 0 01-.50485-1.24577 12.10848 12.10848 0 01-.526-3.22957 17.27278 17.27278 0 01.255-3.63808 19.25207 19.25207 0 012.26831-6.32122 14.67317 14.67317 0 011.30021-1.875A6.70593 6.70593 0 01886.33784 424.46555zM735.03644 507.09644l5.29419.24343c3.36584.15 8.17175.32554 13.92944.49268l9.29273.19479c3.29583.04911 6.7702.04374 10.36077.051 3.59095-.0036 7.29969-.08713 11.06348-.18073 3.76508-.07876 7.58405-.26428 11.397-.49847l5.70874-.37c1.89191-.17517 3.78144-.31631 5.64777-.51635 3.72907-.42371 7.40668-.79471 10.93109-1.36844q2.64927-.39789 5.18378-.87613l2.50842-.45166q1.2291-.267 2.42731-.52719l2.363-.51966 2.26837-.58865 2.20062-.555 2.089-.63062 2.00763-.60562 1.88519-.6644c1.22424-.438 2.41229-.80469 3.4679-1.28378q1.60921-.67448 3.00518-1.25961c.90491-.44342 1.736-.85071 2.48676-1.2186q.56543-.27712 1.06952-.52414l.90973-.52017c.56616-.32584 1.04779-.603 1.43823-.82767l1.20282-.69269-1.08655.859-1.3114 1.036-.8382.65427-1.00659.65582q-1.06924.6959-2.36133 1.53681c-.88256.5191-1.86749 1.02624-2.90783 1.59887-1.03089.59748-2.19049 1.08856-3.39423 1.6608-.60394.28064-1.2243.57083-1.868.84341q-.976.381-1.9964.77918l-2.08551.81314q-1.07913.365-2.19781.74341l-2.28327.74859-2.3811.668-2.45129.67978q-1.251.2997-2.53156.60651c-1.70245.441-3.4657.75989-5.25507 1.10525-3.58068.68-7.29858 1.27945-11.09545 1.71216-1.89728.22516-3.81415.39078-5.73652.59036-1.925.14624-3.85711.31672-5.79113.43732-3.87049.194-7.74164.33768-11.55127.37439-1.90485.04123-3.79444.027-5.6604-.01135-1.8664-.01532-3.70838-.08182-5.52008-.13022-3.62342-.09705-7.12024-.3241-10.43183-.55609-3.31189-.23059-6.43707-.5231-9.31592-.84033-5.75994-.608-10.53411-1.3237-13.8637-1.88871-1.66626-.27069-2.96814-.53646-3.85645-.70614z"/><path d="M788.34961 252.34a6.49029 6.49029 0 01.60883-.794 13.59519 13.59519 0 011.91162-1.81723 15.48449 15.48449 0 011.46246-1.00846 12.55218 12.55218 0 011.78131-.9162 13.7904 13.7904 0 012.05206-.71106 14.43247 14.43247 0 012.24982-.35128 10.229 10.229 0 012.301.10453c.37762.05889.75347.10837 1.11578.19439l1.04687.36232a7.6957 7.6957 0 011.84894.92518 8.03879 8.03879 0 01.78955.52039l.647.59926a7.51371 7.51371 0 011.05 1.08781c.269.36124.481.69139.65637.95656.34833.53305.51629.84782.51629.84782s-.33453-.17393-.86554-.49615c-.26416-.16248-.58605-.35158-.92944-.586-.339-.24215-.80743-.38734-1.23993-.63247l-.6925-.347c-.241-.11108-.511-.1786-.77277-.27328a8.30452 8.30452 0 00-1.65326-.48877c-.29169-.05567-.58221-.12543-.87573-.1944l-.91589-.07442a11.12733 11.12733 0 00-1.87079-.02 5.613 5.613 0 00-.94525.09448c-.3133.05432-.63239.05689-.94239.12785-.61743.154-1.24365.23456-1.83246.43-.59906.15235-1.17236.33856-1.71875.52866-.55395.16948-1.05963.39039-1.55059.55339l-1.30866.53888-1.0199.43986zM858.36658 252.34l-.90424-.39943-1.01984-.43986c-.38958-.16043-.82916-.34142-1.30865-.53888-.491-.163-.99664-.38391-1.5506-.55339-.54638-.1901-1.11969-.37631-1.71881-.52866-.58874-.19542-1.215-.276-1.83246-.43-.30993-.071-.62909-.07353-.94232-.12785a5.61386 5.61386 0 00-.94525-.09448 11.128 11.128 0 00-1.87085.02l-.91589.07442c-.29352.069-.584.13873-.87568.1944a8.30206 8.30206 0 00-1.65325.48877c-.26172.09468-.53186.1622-.77283.27328l-.69251.347c-.43243.24513-.90088.39032-1.23993.63247-.34332.23441-.66522.42351-.92944.586-.531.32222-.86548.49615-.86548.49615s.16791-.31477.51624-.84782c.17547-.26517.38739-.59532.65643-.95656a7.51252 7.51252 0 011.05-1.08781l.647-.59926a8.04937 8.04937 0 01.78961-.52039 7.695 7.695 0 011.84894-.92518l1.04682-.36232c.36236-.086.73822-.1355 1.11584-.19439a10.22885 10.22885 0 012.301-.10453 14.43328 14.43328 0 012.24981.35128 13.78883 13.78883 0 012.052.71106 12.54907 12.54907 0 011.78132.9162 15.47924 15.47924 0 011.46252 1.00846 13.59079 13.59079 0 011.91156 1.81723A6.49581 6.49581 0 01858.36658 252.34z"/><ellipse cx="799.789" cy="258.643" rx="5.447" ry="4.987"/><ellipse cx="847.876" cy="258.643" rx="5.447" ry="4.987"/><path fill="#42210b" d="M236.47138 905.1042a22.96312 22.96312 0 00.42263-4.20249c0-14.53667-13.58534-26.32086-30.34381-26.32086s-30.3438 11.78419-30.3438 26.32086a22.96312 22.96312 0 00.42263 4.20249zM323.37317 905.1042a22.96312 22.96312 0 00.42263-4.20249c0-14.53667-13.58534-26.32086-30.34381-26.32086s-30.3438 11.78419-30.3438 26.32086a22.96312 22.96312 0 00.42263 4.20249z"/><path fill="#5a87af" d="M178.68761,610.63638S162.8502,684.659,175.33793,739.32254a32.3716,32.3716,0,0,1,.76159,7.79189c-.3867,21.67086-2.27629,117.75391-5.559,128.89559,0,0,44.057,12.20935,80.32588,5.02738,0,0-3.95014-131.79485-6.46377-142.92112-2.0993-9.2923-8.61835-119.57973-8.25926-124.60711Z"/><path fill="#e5a16e" d="M286.20476,292.05053c0-28.39664-18.43535-51.41663-41.17655-51.41663-22.74137,0-41.17672,23.02-41.17672,51.41663,0,17.36007,6.89721,32.69907,17.44888,42.00907V314.26053H265.709V336.505C277.96215,327.59732,286.20476,311.031,286.20476,292.05053Z"/><path fill="#e28140" d="M256.87865,242.80585c10.55167,9.31,17.44888,24.6489,17.44888,42.00888,0,28.39665-18.43552,51.41673-41.17672,51.41673a33.64629,33.64629,0,0,1-11.85042-2.17178,35.71914,35.71914,0,0,0,23.72767,9.40757c22.74137,0,41.17672-23.02,41.17672-51.41663C286.20478,268.79935,273.84184,249.16222,256.87865,242.80585Z"/><polygon fill="#ccc" points="265.709 314.123 280.794 304.158 280.219 309.141 265.709 319.39 265.709 314.123"/><polygon fill="#ccc" points="221.219 313.735 206.134 303.769 206.709 308.752 221.219 319.002 221.219 313.735"/><path stroke="#000" stroke-miterlimit="10" stroke-width="1.488" d="M245.27652,247.71478c2.94191.11979,31.14683,2.26077,37.65972,40.35744a2.97176,2.97176,0,0,1,.00463.97108c-.74256,4.59463-6.45411,40.964-2.86784,51.07237,3.736,10.53049,22.55276,23.62874,43.93615,7.93344a13.71121,13.71121,0,0,0,1.30043-20.76491c-8.79429-8.79759-18.04958-23.40692-21.2967-39.35747-4.70738-23.12375-12.54512-78.63814-58.9847-78.52286-52.582.13055-57.41329,39.91256-57.842,56.01934-.44011,16.53285-13.07233,44.71275-23.2036,59.95223a18.83982,18.83982,0,0,0,.43506,21.56968c7.315,10.01217,20.51923,19.328,40.03152.9573a16.53721,16.53721,0,0,0,4.56363-16.85616c-3.05474-9.94455-6.57987-26.54876-1.23825-38.99567,8.12141-18.92431,3.18846-40.41642,37.02613-44.317A3.037,3.037,0,0,1,245.27652,247.71478Z"/><ellipse cx="184.553" cy="343.228" stroke="#000" stroke-miterlimit="10" stroke-width="1.488" rx="27.531" ry="23.7"/><ellipse cx="195.326" cy="257.392" stroke="#000" stroke-miterlimit="10" stroke-width="1.488" rx="16.997" ry="16.758"/><ellipse cx="180.962" cy="283.901" stroke="#000" stroke-miterlimit="10" stroke-width="1.488" rx="14.364" ry="14.603"/><ellipse cx="172.143" cy="316.044" stroke="#000" stroke-miterlimit="10" stroke-width="2.063" rx="19.909" ry="20.241"/><ellipse cx="188.422" cy="319.527" stroke="#000" stroke-miterlimit="10" stroke-width="2.063" rx="19.909" ry="20.241"/><path fill="#5a87af" d="M240.17628,618.89564s12.75577,116.42493,24.46893,135.50867a11.59992,11.59992,0,0,1,1.71424,6.8344c-.7095,10.8097-2.728,34.14677-6.87473,119.84544,0,0,35.55073,10.33736,74.69245,3.15539,0,0-9.69566-123.85917-10.77295-132.47753s-21.463-145.43481-23.97672-147.2303Z"/><ellipse cx="306.085" cy="336.285" stroke="#000" stroke-miterlimit="10" stroke-width="1.488" rx="24.944" ry="25.442"/><path fill="#367aad" d="M244.67513,738.11639c-2.09918-9.29229-8.61836-105.56854-8.25926-110.59591H221.224c-.3591,5.02737,6.15991,101.30362,8.25926,110.59591,2.51352,11.12626,6.46377,142.92112,6.46377,142.92112a167.52018,167.52018,0,0,1-19.54319,2.0144c11.28249.58108,23.38979.23224,34.73505-2.0144C251.1389,881.03751,247.18882,749.24265,244.67513,738.11639Z"/><ellipse cx="307.604" cy="311.774" stroke="#000" stroke-miterlimit="10" stroke-width="1.488" rx="17.476" ry="19.723"/><path fill="#e5a16e" d="M329.44816,479.9246s4.98015,74.8964-1.723,127.08536c0,0,11.13077,32.58091-1.46874,44.873a3.74963,3.74963,0,0,1-6.26529-3.38544c1.28951-7.25261,2.30327-17.1489-1.61427-17.7516,0,0-.79843,1.77429-1.59336,4.10088a2.33535,2.33535,0,0,1-4.47986-.20359,83.42076,83.42076,0,0,1-1.58754-29.75237s-10.53355-112.03867-6.22437-124.96621Z"/><path fill="#e28140" d="M330.74765,607.01141c6.70311-52.18892,1.7229-127.08538,1.7229-127.08538H326.725s-1.30115,99.574,2.94885,149.324c0,0-5.11912,24.29324-3.41743,22.63293C338.85587,639.59083,330.74765,607.01141,330.74765,607.01141Z"/><path fill="#367aad" d="M291.48655,620.50037c2.51369,1.79549,19.22965,128.18629,20.30694,136.80465.9756,7.80548,9.02042,107.51551,10.52923,128.14367,3.89257-.41661,7.85282-.97025,11.85445-1.70449,0,0-9.69566-122.85837-10.77295-131.47673S304.00709,617.7132,301.4934,615.91771Z"/><path fill="#5a87af" d="M234.58724,361.72728s-9.499-2.99233-13.36788,8.52573c0,0-36.42708.98451-54.6214,6.73008,0,0-25.37633,31.60062-53.14649,88.57758,2.753-1.61594,9.77653,2.35395,12.44623,3.41731,10.48513,4.17628,19.35239,8.88181,26.33639,10.46786,0,0,12.52671-23.93992,19.90906-27.7703,0,0-7.93917,105.3355-29.96387,140.76653,0,0,.9576,5.26678,11.49115,11.01235,0,0-5.74558,30.16426,47.87977,25.37628,0,0,2.87278,5.26677,35.90983-2.394s3.26023-1.43639,3.26023-1.43639,15.32805-11.9958,35.3643-7.50032c18.85065,4.22947,24.57677-5.42722,38.4619-5.42722s21.5459-15.32153,21.5459-15.32153-11.01235-35.431-18.19431-43.57059-20.10951-40.219-17.71552-53.14655-.36849-7.64525-.36849-7.64525l37.81387-6.14558s-3.04481-7.75507-6.59936-18.28862-1.87953-74.00054-19.83367-91.92916L273.25147,370.253s-3.20633-7.45747-19.49889-11.85484Z"/><path fill="#e5a16e" d="M233.15081,336.23146s1.91523,26.3877-3.35155,33.56967c0,0,1.55575,22.02469,13.70541,34.47343,0,0,10.71328-9.62978,18.85284-34.02155,0,0-6.70317-9.6567-4.788-34.02155Z"/><polygon fill="#dec5e2" points="147.589 445.93 173.444 545.041 244.021 537.38 215.578 435.875 147.589 445.93"/><path fill="#e5a16e" d="M118.39164,465.76109s-8.32952,22.17707-.976,44.98449a11.87338,11.87338,0,0,0,9.12158,8.012c16.0926,3.03132,60.44106,8.44,99.56561-13.8073,0,0,31.60065-20.44473.4788-28.89548l1.88967,6.74377s-10.508,4.915-15.296-7.53375-7.66076,7.182-.95759,14.36393-43.0918-7.182-65.11649,2.394c0,0,2.41227-10.94014-1.89691-14.77052Z"/><path fill="#e28140" d="M212.11338 473.36219a5.25529 5.25529 0 00-1.421-1.89675A13.47021 13.47021 0 00212.11338 473.36219zM236.22276 480.37785C235.99763 488.91669 223.00122 502 223.00122 502c-41 18.83333-84.43075 12.78685-100.52337 9.75546a11.1436 11.1436 0 01-5.64616-2.9332c.18393.64517.14642 1.2587.3549 1.90535a11.8736 11.8736 0 009.12159 8.012c16.09261 3.0313 60.44108 8.43995 99.56561-13.80731C225.87379 504.93233 248.95743 489.99425 236.22276 480.37785zM257.56965 336.23147h-5.74557c-1.91508 24.36485 4.78786 34.0215 4.78786 34.0215-5.48537 16.43839-12.13535 26.16394-15.89168 30.764a34.33555 34.33555 0 002.78459 3.25757s10.71333-9.62982 18.85266-34.02158C262.35751 370.253 255.65458 360.59632 257.56965 336.23147z"/><path fill="#ccc" d="M221.30037,314.26053V334.0596a35.7189,35.7189,0,0,0,23.72784,9.40765A34.97293,34.97293,0,0,0,265.709,336.505V314.26053Z"/><ellipse cx="304.492" cy="286.327" stroke="#000" stroke-miterlimit="10" stroke-width="1.488" rx="11.97" ry="12.177"/><ellipse cx="296.904" cy="266.62" stroke="#000" stroke-miterlimit="10" stroke-width="1.488" rx="10.7" ry="14.125"/><polygon fill="#fff" points="172.549 443.6 176.653 455.506 195.805 451.676 191.984 440.726 172.549 443.6"/><path d="M200.5926,413.85052s1.75271-34.76667,20.62676-43.59751c0,0-28.37087-.57158-29.16709,43.59751Z"/><circle cx="197.002" cy="423.546" r="12.928" fill="#999"/><circle cx="197.002" cy="423.546" r="6.321"/><polygon fill="red" points="265.709 429.867 253.753 456.942 267.385 464.483 271.335 458.02 264.512 454.548 273.251 434.319 265.709 429.867"/><ellipse cx="270.182" cy="464.332" fill="#999" rx="10.953" ry="2.812" transform="rotate(-65.611 270.182 464.332)"/><polygon fill="red" points="296.472 444.733 303.456 449.401 290.128 476.334 278.876 471.306 282.826 464.483 288.03 465.92 296.472 444.733"/><ellipse cx="278.876" cy="468.433" fill="#999" rx="10.953" ry="2.812" transform="rotate(-65.61 278.878 468.434)"/><path d="M273.25147,370.253s23.57948,11.99686,20.34759,40.36562l7.54107,3.23189S304.25493,370.46549,273.25147,370.253Z"/><path fill="#999" d="M273.25147,434.31912,265.709,429.8674s11.37156-28.58532,31.48106-19.24877,12.89145,27.65057,6.26618,38.78262l-6.98437-4.66828s11.49114-17.23672-1.0773-22.98229C295.39455,421.75068,283.78633,410.61863,273.25147,434.31912Z"/><path fill="#367aad" d="M221.21936,370.253s-3.39,26.88526,8.5799,46.97193c0,0,2.51334-11.03519,13.70541-12.95038a72.68464,72.68464,0,0,1-13.70541-34.47343s3.24584-.34737,2.34112-8.07385C232.14038,361.72728,226.04579,357.29856,221.21936,370.253Z"/><path fill="#367aad" d="M273.25147 370.253s-4.19079 33.54276-10.894 43.59751c0 0-2.75344-11.01235-18.85284-9.576 0 0 16.45885-22.07852 18.85284-34.02155 0 0-2.32821.88236-3.68365-10.29962C258.67386 359.95339 269.7815 362.56533 273.25147 370.253zM319.23812 556.25263c-10.89639-12.156-26.6911-51.05368-27.41491-52.67944h0c.17534.39557 17.24513 40.26672 27.99 52.253zM299.22587 511.56593c-1.05345-14.47615 6.51988-41.80549 6.78219-42.97537h0c-.06453.28476-6.38662 28.60864-5.3486 42.87157zM153.51987 604.15718c-6.96034-1.4925-11.78151-10.99037-11.98351-11.39435l-.23145-.4629.36611-.36611c3.66393-3.66253 9.65537-20.04161 9.70868-20.20853h0c-.21462.67471-4.46528 16.32016-8.32839 20.82713 1.01557 1.84879 5.27566 9.02234 10.76874 10.19923z"/><path fill="#367aad" d="M202.04443,632.52735a57.56019,57.56019,0,0,1-17.63089-2.67219c-1.72255-.087-19.48248-1.247-27.95777-12.1336-8.80071-11.30739,4.4705-34.01474,4.9853-35.00367h0c-.122.23426-12.08731,23.53918-3.85189,34.12136,8.30976,10.67475,26.80753,11.57811,26.99409,11.58512l.21742.04489c.16132.05892,16.35861,5.88024,33.79312-.007l.46009,1.36064A53.13175,53.13175,0,0,1,202.04443,632.52735Z"/><path fill="#367aad" d="M221.17342 630.3391l-.22443-.12485c-9.864-5.51552-1.77986-32.80907-1.48809-33.99438l.06011-.25321c-.06873.27633-6.67558 27.55658 1.91332 32.86731 3.87013-.68593 49.02674-8.62818 69.54724-9.68724 1.28911-.86355 12.78446-6.43913 18.02786-7.3573-2.06061-3.82805-8.17089-18.36452-7.68976-26.48771h0c-.52041 8.78388 9.34357 26.52137 9.44317 26.69952l.55688.99593-1.139.07154c-4.2152.26652-18.55108 7.36012-18.69416 7.43166l-.28335.07294c-21.17558 1.06467-69.29334 9.63393-69.77729 9.7209zM171.23282 442.57818a24.74536 24.74536 0 01.02665-20.801h0a29.43931 29.43931 0 001.28911 20.22874z"/><path d="M215.31563 286.327a10.66944 10.66944 0 012.10136-2.24894 11.61621 11.61621 0 011.22484-.882l.70755-.43624c.25243-.1315.51875-.25013.787-.37775a11.83607 11.83607 0 011.73166-.63031 11.03254 11.03254 0 011.90774-.27588l.97478-.01031.9595.14263a7.3807 7.3807 0 011.79433.53043 7.99383 7.99383 0 011.51659.8302 6.25438 6.25438 0 011.18374.962 5.54776 5.54776 0 01.88234.91617c.2325.299.42224.5682.57935.78625.31109.43906.474.69376.474.69376s-.25734-.17847-.68159-.49744l-.74692-.5809a7.85085 7.85085 0 00-1.00942-.66367 8.26437 8.26437 0 00-1.21881-.68829l-.69148-.30158a3.12851 3.12851 0 00-.72806-.27078 8.33168 8.33168 0 00-1.57084-.34628l-.8176-.10254-.83276.03427a9.61748 9.61748 0 00-1.65653.1904c-.52949.171-1.08385.237-1.58044.45279-.253.09241-.49918.19012-.74843.27042l-.7031.3099c-.46441.19107-.87423.43729-1.27786.62515-.37886.22669-.74812.41156-1.05611.60517l-.806.50137C215.56676 286.14734 215.31563 286.327 215.31563 286.327zM257.2966 285.98541a10.66889 10.66889 0 012.10138-2.2489 11.61033 11.61033 0 011.22482-.88208l.70755-.43622c.25241-.1315.51874-.25015.787-.37777a11.83407 11.83407 0 011.73166-.63031 11.03212 11.03212 0 011.90774-.27588l.97477-.01032q.4823.07169.9595.14264a7.37918 7.37918 0 011.79434.53046 7.99192 7.99192 0 011.5166.83017 6.2542 6.2542 0 011.18372.962 5.55139 5.55139 0 01.88235.91617c.23249.299.42225.56824.57935.78626.3111.43905.47394.69375.47394.69375s-.25733-.17846-.68158-.49743l-.74692-.58091a7.851 7.851 0 00-1.00943-.66366 8.26751 8.26751 0 00-1.21881-.6883l-.69147-.30154a3.12611 3.12611 0 00-.72806-.27081 8.33311 8.33311 0 00-1.57086-.34629l-.81759-.10253-.83277.0343a9.61421 9.61421 0 00-1.65652.1904c-.52948.171-1.08383.237-1.58042.45276-.253.0924-.4992.19012-.74844.27041l-.70309.30991c-.46442.1911-.87424.43731-1.27787.62515-.37884.22668-.7481.41156-1.05612.60519l-.806.50135C257.54773 285.80576 257.2966 285.98541 257.2966 285.98541z"/><ellipse cx="223.728" cy="288.569" stroke="#000" stroke-miterlimit="10" stroke-width="1.436" rx="2.334" ry="2.46"/><ellipse cx="265.709" cy="288.569" stroke="#000" stroke-miterlimit="10" stroke-width="1.436" rx="2.334" ry="2.46"/></svg>